<svg width="121" height="23" viewBox="0 0 121 23" fill="none" xmlns="http://www.w3.org/2000/svg">
<path d="M13.1204 10.9669H15.7444L13.8605 5.44981H9.35263L7.46875 0H15.879C17.09 0 18.1665 0.740098 18.5702 1.88388L22.338 12.8508C22.6071 13.6582 22.4725 14.6001 21.9343 15.3402C21.396 16.0803 20.5887 16.484 19.6467 16.484H13.1204L11.2365 10.9669H13.1204Z" fill="#0085FF"/>
<path d="M0.538253 6.66085C1.07651 5.92075 1.88388 5.51706 2.82583 5.51706H9.35214L11.236 11.0342H6.72816L8.61204 16.5512H13.1199L15.0038 22.0683H6.5936C5.38253 22.0683 4.30602 21.3282 3.90233 20.1844L0.134563 9.08298C-0.134563 8.27561 0 7.33366 0.538253 6.59357V6.66085Z" fill="#0085FF"/>
<path d="M31.0174 19.7924V10.1913H29V7.42035H34.3474V19.7924H31.0174Z" fill="#1C1C1C"/>
<path d="M32.537 5.71889C31.9901 5.71889 31.5282 5.54267 31.1697 5.19023C30.8112 4.83778 30.6289 4.39419 30.6289 3.85945C30.6289 3.3247 30.8112 2.88111 31.1697 2.52867C31.5282 2.17622 31.9901 2 32.537 2C33.0839 2 33.5457 2.17622 33.9042 2.52867C34.2627 2.88111 34.445 3.3247 34.445 3.85945C34.445 4.39419 34.2627 4.83778 33.9042 5.19023C33.5457 5.54267 33.0839 5.71889 32.537 5.71889Z" fill="#1C1C1C"/>
<path d="M45.6009 19.7923V13.2661C45.6009 11.0785 44.732 9.97252 43.0123 9.97252C42.1069 9.97252 41.3959 10.2824 40.8976 10.8962C40.4054 11.5038 40.1563 12.3667 40.1563 13.4605V19.7923H36.8506V7.42034H39.7309L40.0651 9.05495L40.1441 8.95773C40.5756 8.43514 41.0981 8.01585 41.7058 7.72417C42.3135 7.43249 43.073 7.28058 43.9663 7.28058C45.4004 7.28058 46.5975 7.73025 47.5211 8.62351C48.4448 9.51678 48.9127 11.0116 48.9127 13.0777V19.7984H45.607L45.6009 19.7923Z" fill="#1C1C1C"/>
<path d="M55.5061 19.7924C53.1423 19.7924 51.9938 18.6439 51.9938 16.2801V10.1913H49.9277V7.42038H51.9938V3.92024H55.2995V7.42038H58.1433V10.1913H55.2995V15.721C55.2995 16.1707 55.3967 16.5049 55.5972 16.7115C55.7917 16.9181 56.1259 17.0214 56.5756 17.0214H58.2892V19.7924H55.5061Z" fill="#1C1C1C"/>
<path d="M71.6941 14.3234C71.7488 14.0013 71.7791 13.6246 71.7791 13.2174C71.7609 12.0203 71.4814 10.963 70.9466 10.0758C70.4119 9.18863 69.6584 8.49589 68.7104 8.00976C67.7625 7.52363 66.6444 7.27449 65.3987 7.27449C64.153 7.27449 63.0713 7.53578 62.1355 8.05837C61.1997 8.57489 60.4645 9.32231 59.9479 10.2703C59.4314 11.2182 59.1641 12.3485 59.1641 13.6306C59.1641 14.9128 59.4375 16.0188 59.9722 16.9667C60.507 17.9147 61.2848 18.656 62.2814 19.1664C63.2779 19.6769 64.4872 19.9382 65.8605 19.9382C66.9178 19.9382 67.8658 19.7498 68.6801 19.3731C69.4943 18.9963 70.1567 18.4798 70.6489 17.8235C71.1289 17.1915 71.4388 16.4684 71.5725 15.6845H68.3155C68.1635 16.2557 67.8536 16.6993 67.3918 16.9971C66.9239 17.3009 66.3284 17.4589 65.6174 17.4589C64.7302 17.4589 64.0193 17.1915 63.5088 16.6629C62.9984 16.1342 62.7007 15.405 62.6156 14.4814V14.3234H71.6941ZM62.6885 12.1419C62.7857 11.4005 63.1017 10.805 63.6182 10.3675C64.1408 9.92998 64.7849 9.71122 65.5384 9.71122C66.2919 9.71122 66.9908 9.9239 67.5073 10.3432C68.0299 10.7625 68.3519 11.3701 68.4674 12.1419L68.4795 12.2087H62.6764L62.6885 12.1419Z" fill="#1C1C1C"/>
<path d="M86.2178 2.30389H82.9121V19.7924H86.2178V2.30389Z" fill="#1C1C1C"/>
<path d="M73.7725 19.7924V7.42035H76.7743L77.1085 9.40133L77.1936 9.26157C77.5582 8.65998 78.02 8.19208 78.5548 7.88825C79.0956 7.57834 79.8248 7.42035 80.7363 7.42035H81.2589V10.41H79.9585C78.968 10.41 78.2327 10.7139 77.7709 11.3094C77.3091 11.8988 77.0781 12.7131 77.0781 13.7279V19.7924H73.7725Z" fill="#1C1C1C"/>
<path d="M91.954 7.42035H88.624V19.7924H91.954V7.42035Z" fill="#1C1C1C"/>
<path d="M115.081 19.9382C113.702 19.9382 112.499 19.6769 111.502 19.1664C110.506 18.656 109.728 17.9147 109.193 16.9667C108.658 16.0188 108.385 14.8946 108.385 13.6306C108.385 12.3667 108.646 11.2182 109.169 10.2703C109.685 9.32231 110.421 8.57489 111.356 8.05837C112.292 7.54186 113.392 7.27449 114.62 7.27449C115.847 7.27449 116.983 7.52363 117.931 8.00976C118.879 8.49589 119.633 9.1947 120.168 10.0758C120.702 10.963 120.982 12.0203 121 13.2174C121 13.6246 120.97 13.9952 120.915 14.3234H111.836V14.4814C111.915 15.405 112.219 16.1342 112.73 16.6629C113.24 17.1915 113.951 17.4589 114.838 17.4589C115.543 17.4589 116.139 17.307 116.613 16.9971C117.075 16.6993 117.384 16.2557 117.536 15.6845H120.793C120.66 16.4684 120.35 17.1915 119.87 17.8235C119.378 18.4798 118.715 18.9963 117.901 19.3731C117.087 19.7498 116.139 19.9382 115.081 19.9382ZM114.765 9.70514C114.012 9.70514 113.362 9.9239 112.845 10.3614C112.323 10.7989 112.013 11.3944 111.909 12.1358V12.2026H117.707L117.694 12.1358C117.579 11.3641 117.257 10.7564 116.734 10.3371C116.212 9.91782 115.549 9.70514 114.765 9.70514ZM103.281 19.7923V13.266C103.281 11.0785 102.412 9.97251 100.692 9.97251C99.7866 9.97251 99.0756 10.2824 98.5773 10.8962C98.0851 11.5038 97.8359 12.3667 97.8359 13.4605V19.7923H94.5303V7.42033H97.4106L97.7448 9.05494L97.8238 8.95772C98.2552 8.43513 98.7778 8.01584 99.3855 7.72416C99.9871 7.43248 100.747 7.28057 101.646 7.28057C103.08 7.28057 104.277 7.73024 105.201 8.6235C106.124 9.51676 106.592 11.0116 106.592 13.0777V19.7984H103.287L103.281 19.7923Z" fill="#1C1C1C"/>
<path d="M90.2889 5.71889C89.742 5.71889 89.2802 5.54267 88.9217 5.19023C88.5632 4.83778 88.3809 4.39419 88.3809 3.85945C88.3809 3.3247 88.5632 2.88111 88.9217 2.52867C89.2802 2.17622 89.742 2 90.2889 2C90.8358 2 91.2976 2.17622 91.6562 2.52867C92.0147 2.88111 92.197 3.3247 92.197 3.85945C92.197 4.39419 92.0147 4.83778 91.6562 5.19023C91.2976 5.54267 90.8358 5.71889 90.2889 5.71889Z" fill="#1C1C1C"/>
</svg>
