<svg width="32" height="32" viewBox="-1 -1 24.6 24.1" fill="none" xmlns="http://www.w3.org/2000/svg">
<path d="M13.1204 10.9669H15.7444L13.8605 5.44981H9.35263L7.46875 0H15.879C17.09 0 18.1665 0.740098 18.5702 1.88388L22.338 12.8508C22.6071 13.6582 22.4725 14.6001 21.9343 15.3402C21.396 16.0803 20.5887 16.484 19.6467 16.484H13.1204L11.2365 10.9669H13.1204Z" fill="#0085FF"/>
<path d="M0.538253 6.66085C1.07651 5.92075 1.88388 5.51706 2.82583 5.51706H9.35214L11.236 11.0342H6.72816L8.61204 16.5512H13.1199L15.0038 22.0683H6.5936C5.38253 22.0683 4.30602 21.3282 3.90233 20.1844L0.134563 9.08298C-0.134563 8.27561 0 7.33366 0.538253 6.59357V6.66085Z" fill="#0085FF"/>
</svg>
